<svg width="20" height="20" viewBox="0 0 20 20" fill="none" xmlns="http://www.w3.org/2000/svg"><path d="M18.5219 0.00281552C15.4459 -0.00581603 4.10042 0.00871023 1.47811 0.00281552C0.662105 0.00281552 0 0.644708 0 1.43523V18.568C0 19.3587 0.662105 20 1.47811 20H18.5219C19.3383 20 20 19.3587 20 18.5678V1.43523C20 0.644708 19.3383 0.00281552 18.5219 0.00281552ZM6.07811 16.7379H3.08505V7.735H6.0779V12.8339C6.07916 13.7659 6.07747 15.7924 6.07811 16.7379ZM4.58211 6.50616C3.57389 6.51689 2.90653 5.82153 2.90863 4.9508C2.90568 2.89038 6.26653 2.86723 6.27516 4.95101C6.27516 5.81479 5.62547 6.50616 4.58211 6.50616ZM16.8697 16.7379H13.8773V11.9221C13.8773 10.7118 13.4438 9.88636 12.3613 9.88636C11.2499 9.92509 10.6977 10.7872 10.7272 11.711V16.7381L7.73453 16.7383C7.73453 16.7383 7.7739 8.58004 7.73474 7.73563H10.7274L10.7074 9.04088C11.1013 8.42636 11.8103 7.52426 13.4246 7.52426C15.3935 7.52426 16.8699 8.81099 16.8699 11.5762V16.7379H16.8697Z" fill="black"></path></svg>