<svg width="20" height="20" viewBox="0 0 20 20" fill="none" xmlns="http://www.w3.org/2000/svg"><path d="M10.0007 0C4.47762 0 0 4.47716 0 9.99908C0 14.0948 2.46192 17.6124 5.98615 19.1589C5.95632 18.4601 5.97962 17.6228 6.15862 16.8633C6.35194 16.051 7.44671 11.4133 7.44671 11.4133C7.44671 11.4133 7.12761 10.7748 7.12761 9.83173C7.12761 8.34944 7.98629 7.24293 9.05506 7.24293C9.96567 7.24293 10.4041 7.92655 10.4041 8.74407C10.4041 9.65792 9.82171 11.0264 9.52204 12.2927C9.27172 13.3538 10.0538 14.2193 11.0993 14.2193C12.9944 14.2193 14.2708 11.7849 14.2708 8.90232C14.2708 6.71111 12.7946 5.07053 10.1096 5.07053C7.07568 5.07053 5.1871 7.33243 5.1871 9.85894C5.1871 10.7306 5.44266 11.3445 5.84606 11.8199C6.0303 12.0391 6.05622 12.1273 5.98877 12.3777C5.94076 12.5619 5.83178 13.0049 5.7851 13.18C5.71886 13.4336 5.51397 13.5237 5.28442 13.431C3.88748 12.8596 3.23759 11.3309 3.23759 9.61057C3.23759 6.76944 5.63335 3.36379 10.3833 3.36379C14.2019 3.36379 16.7158 6.12577 16.7158 9.09164C16.7158 13.0146 14.534 15.9458 11.3185 15.9458C10.2393 15.9458 9.2237 15.3614 8.87606 14.6986C8.87606 14.6986 8.29499 17.0033 8.17312 17.4476C7.96037 18.2181 7.54528 18.9896 7.16647 19.5901C8.06543 19.8554 9.01616 20 10.0007 20C15.5237 20 20 15.5229 20 9.999C20 4.47716 15.5237 0 10.0007 0Z" fill="black"></path></svg>