<svg width="17" height="20" viewBox="0 0 17 20" fill="none" xmlns="http://www.w3.org/2000/svg"><path d="M14.4605 4.00904C13.4107 3.30654 12.6526 2.18284 12.4162 0.872561C12.3652 0.589122 12.3372 0.29779 12.3372 0H8.98572L8.98013 13.7801C8.92348 15.3236 7.68626 16.5621 6.16859 16.5621C5.69721 16.5621 5.2531 16.4409 4.86214 16.2299C3.96552 15.7456 3.35146 14.7811 3.35146 13.6718C3.35146 12.0781 4.61525 10.7814 6.16859 10.7814C6.45884 10.7814 6.7365 10.8302 7.00016 10.9149V7.40456C6.7281 7.36653 6.45115 7.34285 6.16859 7.34285C2.76747 7.34285 0 10.1823 0 13.6718C0 15.813 1.04279 17.7081 2.63319 18.8533C3.63541 19.5752 4.85375 20 6.16859 20C9.56971 20 12.3372 17.1613 12.3372 13.6711V6.68341C13.6513 7.65141 15.262 8.22187 17 8.22187V4.7833C16.0642 4.7833 15.1921 4.4977 14.4612 4.00832L14.4605 4.00904Z" fill="black"></path></svg>