<svg width="19" height="20" viewBox="0 0 19 20" fill="none" xmlns="http://www.w3.org/2000/svg"><path d="M0.0435362 0.0627804C0.0799483 0.116592 7.33071 10.9874 7.39562 11.0852L7.41857 11.1194L3.75203 15.5084C1.73591 17.9225 0.0664917 19.9209 0.0427447 19.9486L0 20H0.83827H1.67654L4.91801 16.119C6.70062 13.9845 8.16027 12.2381 8.16265 12.2381C8.16502 12.2381 9.33179 13.9845 10.755 16.119L13.3435 20H16.1717H19L18.977 19.9649C18.9644 19.9462 17.2356 17.3551 15.1364 14.2071C13.0363 11.0591 11.3178 8.47778 11.3178 8.47044C11.317 8.46392 12.9041 6.55768 14.8435 4.23563C16.7828 1.91358 18.3715 0.0105991 18.3723 0.00652313C18.3739 0.00326157 17.9995 0 17.5403 0H16.7052L13.6387 3.67061C11.9527 5.68936 10.5698 7.34203 10.5651 7.34285C10.5611 7.34448 9.45528 5.69262 8.10803 3.67305L5.65892 0H2.82985H0.000791568L0.0435362 0.0627804ZM5.33912 2.01142C7.58559 5.32083 16.6942 18.7428 16.6989 18.7501C16.7037 18.7583 16.4456 18.7607 15.4189 18.7607H14.1327L11.4334 14.7843C9.94921 12.5968 7.28401 8.6702 5.51169 6.0587C3.73937 3.44721 2.28921 1.30779 2.28921 1.30371C2.28921 1.29963 2.82985 1.29637 3.57155 1.29637H4.8531L5.33912 2.01142Z" fill="black"></path></svg>